<?xml version="1.0" encoding="utf-8"?>
<!-- Generator: Adobe Illustrator 18.0.0, SVG Export Plug-In . SVG Version: 6.00 Build 0)  -->
<!DOCTYPE svg PUBLIC "-//W3C//DTD SVG 1.1//EN" "http://www.w3.org/Graphics/SVG/1.1/DTD/svg11.dtd">
<svg version="1.1" id="图层_1" xmlns="http://www.w3.org/2000/svg" xmlns:xlink="http://www.w3.org/1999/xlink" x="0px" y="0px"
	 viewBox="0 0 158 118" enable-background="new 0 0 158 118" xml:space="preserve">
<g display="none">
	<g display="inline">
		<path fill="#4A4F54" d="M155,95H3c-1.654,0-3-1.346-3-3V3c0-1.654,1.346-3,3-3h152c1.654,0,3,1.346,3,3v89
			C158,93.654,156.654,95,155,95z M3,2C2.449,2,2,2.449,2,3v89c0,0.552,0.449,1,1,1h152c0.552,0,1-0.448,1-1V3c0-0.551-0.448-1-1-1
			H3z"/>
	</g>
	<g display="inline">
		<path fill="#4A4F54" d="M152,89H6V6h146V89z M7,88h144V7H7V88z"/>
	</g>
	<g display="inline">
		<path fill="#4A4F54" d="M92.854,118h-28.22l1.2-6h25.819L92.854,118z M65.854,117h25.779l-0.8-4h-24.18L65.854,117z"/>
	</g>
	<g display="inline">
		<path fill="#4A4F54" d="M92.834,118H64.653l2.174-25H90.66L92.834,118z M66.834,116h23.818l-1.826-21H68.661L66.834,116z"/>
	</g>
</g>
<g>
	<path fill="none" stroke="#4A4F54" stroke-width="2" stroke-miterlimit="10" d="M121,71.5c0,16.292-13.208,29.5-29.5,29.5h-26
		C49.208,101,36,87.792,36,71.5v0C36,55.208,49.208,42,65.5,42h26C107.792,42,121,55.208,121,71.5L121,71.5z"/>
	<path fill="none" stroke="#4A4F54" stroke-miterlimit="10" d="M62.428,67.5H57.5v-5.258c0-2.327-1.673-4.214-4-4.214
		s-4,1.887-4,4.214V67.5h-3.928c-2.327,0-4.214,1.673-4.214,4s1.887,4,4.214,4H49.5v3.599c0,2.327,1.673,4.214,4,4.214
		s4-1.887,4-4.214V75.5h4.928c2.327,0,4.214-1.673,4.214-4S64.756,67.5,62.428,67.5z"/>
	<circle fill="none" stroke="#4A4F54" stroke-miterlimit="10" cx="106.189" cy="62.456" r="5.197"/>
	<circle fill="none" stroke="#4A4F54" stroke-miterlimit="10" cx="106.189" cy="79.456" r="5.197"/>
	<circle fill="none" stroke="#4A4F54" stroke-miterlimit="10" cx="90.189" cy="62.456" r="5.197"/>
	<circle fill="none" stroke="#4A4F54" stroke-miterlimit="10" cx="90.189" cy="79.456" r="5.197"/>
	<path fill="none" stroke="#4A4F54" stroke-width="2" stroke-miterlimit="10" d="M86,42H70.481C68.264,42,66,39.521,66,37.303v-0.05
		C66,35.035,68.264,34,70.481,34H86"/>
	<path fill="none" stroke="#4A4F54" stroke-width="2" stroke-miterlimit="10" d="M86,26H70.481C68.264,26,66,23.456,66,21.238
		v-0.017C66,19.003,68.264,18,70.481,18H96"/>
	<path fill="none" stroke="#4A4F54" stroke-width="2" stroke-miterlimit="10" d="M70,26h16.973C89.191,26,91,27.085,91,29.303
		v-0.082C91,31.438,89.191,34,86.973,34H70"/>
</g>
<g display="none">
	<rect x="43.5" y="64.5" display="inline" fill="none" stroke="#4A4F54" stroke-miterlimit="10" width="5" height="5"/>
	<rect x="43.5" y="72.5" display="inline" fill="none" stroke="#4A4F54" stroke-miterlimit="10" width="68" height="4"/>
	<rect x="43.5" y="79.5" display="inline" fill="none" stroke="#4A4F54" stroke-miterlimit="10" width="68" height="4"/>
	<rect x="43.5" y="86.5" display="inline" fill="none" stroke="#4A4F54" stroke-miterlimit="10" width="68" height="4"/>
	<rect x="52.5" y="64.5" display="inline" fill="none" stroke="#4A4F54" stroke-miterlimit="10" width="5" height="5"/>
	<rect x="61.5" y="64.5" display="inline" fill="none" stroke="#4A4F54" stroke-miterlimit="10" width="5" height="5"/>
	<rect x="70.5" y="64.5" display="inline" fill="none" stroke="#4A4F54" stroke-miterlimit="10" width="5" height="5"/>
	<rect x="43.5" y="32.5" display="inline" fill="none" stroke="#4A4F54" stroke-miterlimit="10" width="68" height="29"/>
	<path display="inline" fill="none" stroke="#4A4F54" stroke-width="2" stroke-miterlimit="10" d="M117,97H38V24.671
		c0-3.3,2.7-5.671,6-5.671h67c3.3,0,6,2.371,6,5.671V97z"/>
	
		<rect x="38" y="27" display="inline" fill="none" stroke="#4A4F54" stroke-width="2" stroke-miterlimit="10" width="79" height="70"/>
</g>
</svg>
